<svg width="49" height="10" viewBox="0 0 49 10" fill="none" xmlns="http://www.w3.org/2000/svg">
<path d="M3.234 1.333C4.07 1.333 4.79233 1.49067 5.401 1.806C6.017 2.114 6.48633 2.55767 6.809 3.137C7.139 3.71633 7.304 4.39833 7.304 5.183C7.304 5.96767 7.139 6.64967 6.809 7.229C6.48633 7.801 6.017 8.241 5.401 8.549C4.79233 8.84967 4.07 9 3.234 9H0.847V1.333H3.234ZM3.234 8.175C4.224 8.175 4.97933 7.91467 5.5 7.394C6.02067 6.866 6.281 6.129 6.281 5.183C6.281 4.22967 6.017 3.48533 5.489 2.95C4.96833 2.41467 4.21667 2.147 3.234 2.147H1.848V8.175H3.234ZM9.14134 1.993C8.95068 1.993 8.78934 1.927 8.65734 1.795C8.52534 1.663 8.45934 1.50167 8.45934 1.311C8.45934 1.12033 8.52534 0.959 8.65734 0.827C8.78934 0.695 8.95068 0.629 9.14134 0.629C9.32468 0.629 9.47868 0.695 9.60334 0.827C9.73534 0.959 9.80134 1.12033 9.80134 1.311C9.80134 1.50167 9.73534 1.663 9.60334 1.795C9.47868 1.927 9.32468 1.993 9.14134 1.993ZM9.62534 2.972V9H8.62434V2.972H9.62534ZM10.9574 5.964C10.9574 5.348 11.082 4.809 11.3314 4.347C11.5807 3.87767 11.9217 3.51467 12.3544 3.258C12.7944 3.00133 13.282 2.873 13.8174 2.873C14.3454 2.873 14.8037 2.98667 15.1924 3.214C15.581 3.44133 15.8707 3.72733 16.0614 4.072V2.972H17.0734V9H16.0614V7.878C15.8634 8.23 15.5664 8.52333 15.1704 8.758C14.7817 8.98533 14.327 9.099 13.8064 9.099C13.271 9.099 12.787 8.967 12.3544 8.703C11.9217 8.439 11.5807 8.06867 11.3314 7.592C11.082 7.11533 10.9574 6.57267 10.9574 5.964ZM16.0614 5.975C16.0614 5.52033 15.9697 5.12433 15.7864 4.787C15.603 4.44967 15.3537 4.193 15.0384 4.017C14.7304 3.83367 14.3894 3.742 14.0154 3.742C13.6414 3.742 13.3004 3.83 12.9924 4.006C12.6844 4.182 12.4387 4.43867 12.2554 4.776C12.072 5.11333 11.9804 5.50933 11.9804 5.964C11.9804 6.426 12.072 6.82933 12.2554 7.174C12.4387 7.51133 12.6844 7.77167 12.9924 7.955C13.3004 8.131 13.6414 8.219 14.0154 8.219C14.3894 8.219 14.7304 8.131 15.0384 7.955C15.3537 7.77167 15.603 7.51133 15.7864 7.174C15.9697 6.82933 16.0614 6.42967 16.0614 5.975ZM19.766 4.094C19.9713 3.73467 20.272 3.44133 20.668 3.214C21.064 2.98667 21.515 2.873 22.021 2.873C22.5636 2.873 23.0513 3.00133 23.484 3.258C23.9166 3.51467 24.2576 3.87767 24.507 4.347C24.7563 4.809 24.881 5.348 24.881 5.964C24.881 6.57267 24.7563 7.11533 24.507 7.592C24.2576 8.06867 23.913 8.439 23.473 8.703C23.0403 8.967 22.5563 9.099 22.021 9.099C21.5003 9.099 21.042 8.98533 20.646 8.758C20.2573 8.53067 19.964 8.241 19.766 7.889V9H18.765V0.86H19.766V4.094ZM23.858 5.964C23.858 5.50933 23.7663 5.11333 23.583 4.776C23.3996 4.43867 23.1503 4.182 22.835 4.006C22.527 3.83 22.186 3.742 21.812 3.742C21.4453 3.742 21.1043 3.83367 20.789 4.017C20.481 4.193 20.2316 4.45333 20.041 4.798C19.8576 5.13533 19.766 5.52767 19.766 5.975C19.766 6.42967 19.8576 6.82933 20.041 7.174C20.2316 7.51133 20.481 7.77167 20.789 7.955C21.1043 8.131 21.4453 8.219 21.812 8.219C22.186 8.219 22.527 8.131 22.835 7.955C23.1503 7.77167 23.3996 7.51133 23.583 7.174C23.7663 6.82933 23.858 6.426 23.858 5.964ZM31.6986 5.755C31.6986 5.94567 31.6876 6.14733 31.6656 6.36H26.8476C26.8842 6.954 27.0859 7.41967 27.4526 7.757C27.8266 8.087 28.2776 8.252 28.8056 8.252C29.2382 8.252 29.5976 8.153 29.8836 7.955C30.1769 7.74967 30.3822 7.47833 30.4996 7.141H31.5776C31.4162 7.72033 31.0936 8.19333 30.6096 8.56C30.1256 8.91933 29.5242 9.099 28.8056 9.099C28.2336 9.099 27.7202 8.97067 27.2656 8.714C26.8182 8.45733 26.4662 8.09433 26.2096 7.625C25.9529 7.14833 25.8246 6.59833 25.8246 5.975C25.8246 5.35167 25.9492 4.80533 26.1986 4.336C26.4479 3.86667 26.7962 3.50733 27.2436 3.258C27.6982 3.00133 28.2189 2.873 28.8056 2.873C29.3776 2.873 29.8836 2.99767 30.3236 3.247C30.7636 3.49633 31.1009 3.841 31.3356 4.281C31.5776 4.71367 31.6986 5.205 31.6986 5.755ZM30.6646 5.546C30.6646 5.16467 30.5802 4.83833 30.4116 4.567C30.2429 4.28833 30.0119 4.07933 29.7186 3.94C29.4326 3.79333 29.1136 3.72 28.7616 3.72C28.2556 3.72 27.8229 3.88133 27.4636 4.204C27.1116 4.52667 26.9099 4.974 26.8586 5.546H30.6646ZM34.2409 3.797V7.35C34.2409 7.64333 34.3032 7.85233 34.4279 7.977C34.5525 8.09433 34.7689 8.153 35.0769 8.153H35.8139V9H34.9119C34.3545 9 33.9365 8.87167 33.6579 8.615C33.3792 8.35833 33.2399 7.93667 33.2399 7.35V3.797H32.4589V2.972H33.2399V1.454H34.2409V2.972H35.8139V3.797H34.2409ZM42.5267 5.755C42.5267 5.94567 42.5157 6.14733 42.4937 6.36H37.6757C37.7124 6.954 37.914 7.41967 38.2807 7.757C38.6547 8.087 39.1057 8.252 39.6337 8.252C40.0664 8.252 40.4257 8.153 40.7117 7.955C41.005 7.74967 41.2104 7.47833 41.3277 7.141H42.4057C42.2444 7.72033 41.9217 8.19333 41.4377 8.56C40.9537 8.91933 40.3524 9.099 39.6337 9.099C39.0617 9.099 38.5484 8.97067 38.0937 8.714C37.6464 8.45733 37.2944 8.09433 37.0377 7.625C36.781 7.14833 36.6527 6.59833 36.6527 5.975C36.6527 5.35167 36.7774 4.80533 37.0267 4.336C37.276 3.86667 37.6244 3.50733 38.0717 3.258C38.5264 3.00133 39.047 2.873 39.6337 2.873C40.2057 2.873 40.7117 2.99767 41.1517 3.247C41.5917 3.49633 41.929 3.841 42.1637 4.281C42.4057 4.71367 42.5267 5.205 42.5267 5.755ZM41.4927 5.546C41.4927 5.16467 41.4084 4.83833 41.2397 4.567C41.071 4.28833 40.84 4.07933 40.5467 3.94C40.2607 3.79333 39.9417 3.72 39.5897 3.72C39.0837 3.72 38.651 3.88133 38.2917 4.204C37.9397 4.52667 37.738 4.974 37.6867 5.546H41.4927ZM45.982 9.099C45.52 9.099 45.1056 9.022 44.739 8.868C44.3723 8.70667 44.0826 8.48667 43.87 8.208C43.6573 7.922 43.54 7.59567 43.518 7.229H44.552C44.5813 7.52967 44.7206 7.77533 44.97 7.966C45.2266 8.15667 45.5603 8.252 45.971 8.252C46.3523 8.252 46.653 8.16767 46.873 7.999C47.093 7.83033 47.203 7.61767 47.203 7.361C47.203 7.097 47.0856 6.90267 46.851 6.778C46.6163 6.646 46.2533 6.51767 45.762 6.393C45.3146 6.27567 44.948 6.15833 44.662 6.041C44.3833 5.91633 44.1413 5.73667 43.936 5.502C43.738 5.26 43.639 4.94467 43.639 4.556C43.639 4.248 43.7306 3.96567 43.914 3.709C44.0973 3.45233 44.3576 3.25067 44.695 3.104C45.0323 2.95 45.4173 2.873 45.85 2.873C46.5173 2.873 47.0563 3.04167 47.467 3.379C47.8776 3.71633 48.0976 4.17833 48.127 4.765H47.126C47.104 4.44967 46.9756 4.19667 46.741 4.006C46.5136 3.81533 46.2056 3.72 45.817 3.72C45.4576 3.72 45.1716 3.797 44.959 3.951C44.7463 4.105 44.64 4.30667 44.64 4.556C44.64 4.754 44.7023 4.919 44.827 5.051C44.959 5.17567 45.1203 5.27833 45.311 5.359C45.509 5.43233 45.7803 5.51667 46.125 5.612C46.5576 5.72933 46.9096 5.84667 47.181 5.964C47.4523 6.074 47.6833 6.24267 47.874 6.47C48.072 6.69733 48.1746 6.99433 48.182 7.361C48.182 7.691 48.0903 7.988 47.907 8.252C47.7236 8.516 47.4633 8.725 47.126 8.879C46.796 9.02567 46.4146 9.099 45.982 9.099Z" fill="black"/>
</svg>
